<?xml version="1.0" encoding="utf-8"?>
<!-- Generator: Adobe Illustrator 24.1.0, SVG Export Plug-In . SVG Version: 6.00 Build 0)  -->
<svg version="1.1" id="Layer_1" xmlns="http://www.w3.org/2000/svg" xmlns:xlink="http://www.w3.org/1999/xlink" x="0px" y="0px"
	 viewBox="0 0 600.1 190.2" style="enable-background:new 0 0 600.1 190.2;" xml:space="preserve">
<style type="text/css">
	.st0{stroke:#FFFFFF;stroke-width:3;stroke-linejoin:round;stroke-miterlimit:10;}
</style>
<polygon class="st0" points="1.5,48.3 32.6,47.4 82.6,1.5 "/>
<polygon class="st0" points="163.6,48.4 130.2,103.2 32.6,47.4 "/>
<polygon class="st0" points="82.6,1.5 163.6,48.4 32.6,47.4 "/>
<polygon class="st0" points="1.5,141.9 32.7,160.1 32.6,47.4 "/>
<polygon class="st0" points="32.7,159.7 82.6,188.7 163.6,141.9 "/>
<polygon class="st0" points="130.2,103.2 163.6,141.9 32.7,159.7 "/>
<polygon class="st0" points="163.6,48.4 163.6,141.9 130.2,103.2 "/>
<polygon class="st0" points="1.5,48.3 1.5,141.9 32.6,47.4 "/>
<g>
	<g>
		<path d="M229.3,124c-0.4,0-0.6-0.2-0.6-0.7v-14c0-0.5,0.2-0.7,0.7-0.7h2.2c1-2.2,1.9-4.5,2.4-6.8c0.6-2.3,1-4.9,1.3-7.7
			c0.3-2.8,0.4-5.9,0.5-9.3c0-3.4,0.1-7.3,0.1-11.6v-5.8c0-0.5,0.2-0.7,0.7-0.7h20c0.4,0,0.6,0.2,0.6,0.7v41.2h3.3
			c0.5,0,0.7,0.2,0.7,0.7v14c0,0.5-0.2,0.7-0.6,0.7h-5.2c-0.4,0-0.6-0.2-0.6-0.7V115h-19.6v8.3c0,0.5-0.2,0.7-0.6,0.7H229.3z
			 M250.2,108.6V73.2h-7.6v7.4c0,3.3,0,6.3-0.1,9c-0.1,2.6-0.3,5-0.6,7.2s-0.7,4.2-1.2,6.1s-1.2,3.8-2,5.7
			C238.7,108.6,250.2,108.6,250.2,108.6z"/>
		<path d="M300.4,115.1c-0.5,0-0.7-0.2-0.7-0.7v-47c0-0.5,0.2-0.7,0.7-0.7h11c4.4,0,7.6,1.1,9.7,3.2s3.1,5.3,3.1,9.6v1.2
			c0,2.6-0.5,4.7-1.6,6.3c-1,1.6-2.3,2.7-3.8,3.3c0.7,0.2,1.4,0.6,2.1,1.2c0.7,0.5,1.3,1.2,1.9,2.1s1,1.9,1.4,3.1
			c0.3,1.2,0.5,2.5,0.5,4.1v1.2c0,4.6-1.2,7.9-3.5,10s-5.5,3.2-9.5,3.2L300.4,115.1L300.4,115.1z M311,87.2c1.2,0,2.2-0.2,3-0.5
			s1.4-0.8,1.9-1.4s0.8-1.4,1-2.2c0.2-0.9,0.3-1.9,0.3-2.9c0-2.4-0.5-4.2-1.4-5.3c-0.9-1.1-2.5-1.7-4.9-1.7h-4.1v14H311z
			 M311.2,108.6c2.5,0,4.2-0.7,5.1-2s1.3-3.2,1.3-5.6c0-1.2-0.1-2.2-0.3-3.1c-0.2-0.9-0.5-1.7-1-2.4c-0.5-0.7-1.1-1.1-1.9-1.5
			c-0.8-0.3-1.9-0.5-3.2-0.5h-4.5v15.1H311.2z"/>
		<path d="M364.5,114.4v-47c0-0.5,0.2-0.7,0.7-0.7h5.6c0.5,0,0.7,0.2,0.7,0.7v31.2l11.8-31.4c0-0.2,0.2-0.4,0.3-0.4
			c0.2,0,0.3-0.1,0.5-0.1h5c0.5,0,0.7,0.2,0.7,0.7v47c0,0.5-0.2,0.7-0.7,0.7h-5.7c-0.5,0-0.7-0.2-0.7-0.7V83.2l-11.9,31.4
			c-0.1,0.3-0.4,0.5-0.8,0.5h-4.8C364.7,115.1,364.5,114.8,364.5,114.4z"/>
		<path d="M428,114.4l10.6-28.3l-9.4-18.8c-0.2-0.4,0-0.6,0.5-0.6h5.7c0.5,0,0.9,0.2,1.2,0.7l10.1,21.3V67.4c0-0.5,0.2-0.7,0.7-0.7
			h5.6c0.5,0,0.7,0.2,0.7,0.7v21.3l10.2-21.3c0.2-0.5,0.6-0.7,1.1-0.7h5.7c0.5,0,0.7,0.2,0.5,0.6l-9.4,18.8l10.7,28.3
			c0.1,0.1,0.1,0.3,0,0.4s-0.2,0.2-0.4,0.2h-6c-0.3,0-0.5-0.1-0.6-0.2s-0.2-0.3-0.3-0.4l-7.9-20.9l-3.3,6.1v14.7
			c0,0.5-0.2,0.7-0.7,0.7h-5.6c-0.4,0-0.6-0.2-0.6-0.7V99.7l-3.3-6.1l-7.9,20.9c-0.1,0.2-0.2,0.3-0.3,0.4c-0.1,0.1-0.3,0.2-0.6,0.2
			h-6C428,115.1,427.9,114.9,428,114.4z"/>
		<path d="M520.6,115.5c-1.7,0-3.3-0.2-4.8-0.7s-2.8-1.2-3.9-2.3c-1.1-1.1-2-2.6-2.7-4.4c-0.7-1.9-1-4.2-1-7V80.7c0-2.8,0.3-5.1,1-7
			s1.5-3.3,2.7-4.4c1.1-1.1,2.4-1.9,3.9-2.3c1.5-0.5,3.1-0.7,4.8-0.7s3.3,0.2,4.8,0.7s2.8,1.2,3.9,2.3c1.1,1.1,2,2.6,2.7,4.4
			c0.7,1.9,1,4.2,1,7v20.4c0,2.8-0.3,5.1-1,7s-1.5,3.3-2.7,4.4c-1.1,1.1-2.4,1.9-3.9,2.3C523.8,115.3,522.3,115.5,520.6,115.5z
			 M520.6,109.1c0.7,0,1.4-0.1,2.1-0.3c0.7-0.2,1.2-0.6,1.7-1.2s0.8-1.5,1.1-2.6s0.4-2.5,0.4-4.4V81.1c0-1.8-0.1-3.3-0.4-4.4
			c-0.3-1.1-0.6-1.9-1.1-2.5s-1-1-1.7-1.2s-1.3-0.3-2.1-0.3s-1.5,0.1-2.1,0.3c-0.6,0.2-1.2,0.6-1.7,1.2s-0.8,1.4-1.1,2.5
			s-0.4,2.5-0.4,4.4v19.5c0,1.8,0.1,3.3,0.4,4.4c0.3,1.1,0.6,1.9,1.1,2.6c0.5,0.6,1,1,1.7,1.2C519.1,109,519.8,109.1,520.6,109.1z"
			/>
		<path d="M591.6,67.4c0.2-0.5,0.6-0.7,1.1-0.7h5.7c0.5,0,0.7,0.2,0.5,0.6L589,85.6l11.1,28.8c0.2,0.4,0,0.6-0.5,0.6h-6
			c-0.3,0-0.5-0.1-0.6-0.2s-0.2-0.3-0.3-0.5l-8.3-21l-3.5,6v14.9c0,0.5-0.2,0.7-0.7,0.7h-5.6c-0.5,0-0.7-0.2-0.7-0.7v-47
			c0-0.5,0.2-0.7,0.7-0.7h5.6c0.5,0,0.7,0.2,0.7,0.7V88L591.6,67.4z"/>
	</g>
</g>
<polygon points="276.6,95.1 276.6,86.5 284,90.8 "/>
<polygon points="343.2,95.1 343.2,86.5 350.6,90.8 "/>
<polygon points="408.8,95.1 408.8,86.5 416.2,90.8 "/>
<polygon points="485,95.1 485,86.5 492.4,90.8 "/>
<polygon points="552.9,95.1 552.9,86.5 560.3,90.8 "/>
<polygon points="32.6,47.4 32.6,159.7 130.2,103.2 "/>
</svg>
